<svg t="1650513228371" class="icon" viewBox="0 0 1024 1024" version="1.1" xmlns="http://www.w3.org/2000/svg" p-id="8681" width="400" height="400"><path d="M512 160C281.6 160 83.2 307.2 0 512c83.2 204.8 281.6 352 512 352 230.4 0 428.8-147.2 512-352-83.2-204.8-281.6-352-512-352z m0 582.4C384 742.4 281.6 640 281.6 512S384 281.6 512 281.6 742.4 384 742.4 512 640 742.4 512 742.4z m0-371.2c-76.8 0-140.8 64-140.8 140.8s64 140.8 140.8 140.8c76.8 0 140.8-64 140.8-140.8S588.8 371.2 512 371.2z m0 0" fill="#e6e6e6" p-id="8682"></path></svg>