<svg t="1650513263222" class="icon" viewBox="0 0 1024 1024" version="1.1" xmlns="http://www.w3.org/2000/svg" p-id="8918" width="400" height="400"><path d="M1011.2 396.8c6.4-12.8 12.8-19.2 12.8-32 0-19.2-12.8-38.4-32-44.8-19.2-6.4-38.4-6.4-51.2 6.4l-6.4 12.8C844.8 486.4 684.8 576 512 576S179.2 486.4 89.6 339.2l-6.4-12.8C70.4 313.6 44.8 313.6 32 320c-19.2 6.4-32 25.6-32 44.8 0 12.8 6.4 19.2 12.8 32 32 51.2 64 96 108.8 134.4L38.4 608c-19.2 19.2-19.2 51.2 0 70.4 19.2 19.2 51.2 19.2 70.4 0l89.6-89.6c44.8 25.6 89.6 51.2 140.8 64L300.8 768c-6.4 12.8-6.4 25.6 0 38.4 6.4 12.8 19.2 19.2 25.6 25.6 12.8 6.4 25.6 6.4 38.4 0 12.8-6.4 19.2-12.8 25.6-25.6l44.8-128c44.8 6.4 96 6.4 140.8 0l44.8 128c6.4 19.2 25.6 32 44.8 32h19.2c12.8-6.4 25.6-12.8 25.6-25.6 6.4-12.8 6.4-25.6 0-38.4l-38.4-108.8c51.2-12.8 96-38.4 140.8-64l89.6 89.6c19.2 19.2 51.2 19.2 70.4 0 19.2-19.2 19.2-51.2 0-70.4L896 531.2c44.8-38.4 83.2-83.2 115.2-134.4z m0 0" fill="#e6e6e6" p-id="8919"></path></svg>