<?xml version="1.0" encoding="utf-8"?>
<svg version="1.1" xmlns:xlink="http://www.w3.org/1999/xlink" width="148px" height="148px" xmlns="http://www.w3.org/2000/svg">
  <g transform="matrix(1 0 0 1 -416 -1631 )">
    <path d="M 417 1635  A 3 3 0 0 1 420 1632 L 560 1632  A 3 3 0 0 1 563 1635 L 563 1775  A 3 3 0 0 1 560 1778 L 420 1778  A 3 3 0 0 1 417 1775 L 417 1635  Z " fill-rule="nonzero" fill="#fbfdff" stroke="none" />
    <path d="M 416.5 1635  A 3.5 3.5 0 0 1 420 1631.5 L 560 1631.5  A 3.5 3.5 0 0 1 563.5 1635 L 563.5 1775  A 3.5 3.5 0 0 1 560 1778.5 L 420 1778.5  A 3.5 3.5 0 0 1 416.5 1775 L 416.5 1635  Z " stroke-width="1" stroke-dasharray="9,4" stroke="#e7e7e7" fill="none" stroke-dashoffset="0.5" />
  </g>
</svg>