<?xml version="1.0" encoding="utf-8"?>
<svg version="1.1" xmlns:xlink="http://www.w3.org/1999/xlink" width="32px" height="32px" xmlns="http://www.w3.org/2000/svg">
  <g transform="matrix(1 0 0 1 -895 -441 )">
    <path d="M 911 442  C 919.4 442  926 448.6  926 457  C 926 465.4  919.4 472  911 472  C 902.6 472  896 465.4  896 457  C 896 448.6  902.6 442  911 442  Z " fill-rule="nonzero" fill="#ffffff" stroke="none" />
    <path d="M 911 442  C 919.4 442  926 448.6  926 457  C 926 465.4  919.4 472  911 472  C 902.6 472  896 465.4  896 457  C 896 448.6  902.6 442  911 442  Z " stroke-width="2" stroke="#000000" fill="none" />
  </g>
</svg>