<?xml version="1.0" encoding="utf-8"?>
<svg version="1.1" xmlns:xlink="http://www.w3.org/1999/xlink" width="40px" height="24px" xmlns="http://www.w3.org/2000/svg">
  <g transform="matrix(1 0 0 1 -477 -2435 )">
    <path d="M 478 2437  A 1 1 0 0 1 479 2436 L 515 2436  A 1 1 0 0 1 516 2437 L 516 2457  A 1 1 0 0 1 515 2458 L 479 2458  A 1 1 0 0 1 478 2457 L 478 2437  Z " fill-rule="nonzero" fill="#a6e988" stroke="none" fill-opacity="0.2" />
    <path d="M 477.5 2437  A 1.5 1.5 0 0 1 479 2435.5 L 515 2435.5  A 1.5 1.5 0 0 1 516.5 2437 L 516.5 2457  A 1.5 1.5 0 0 1 515 2458.5 L 479 2458.5  A 1.5 1.5 0 0 1 477.5 2457 L 477.5 2437  Z " stroke-width="1" stroke="#a6e988" fill="none" stroke-opacity="0.4" />
  </g>
</svg>