<svg t="1680745351723" class="icon" viewBox="0 0 1024 1024" version="1.1" xmlns="http://www.w3.org/2000/svg" p-id="4194" width="24" height="24"><path d="M457.60512 317.60384a24.576 24.576 0 0 0 24.576-24.576c0-17.94048-22.81472-33.46432-23.79776-34.16064l-0.98304-0.65536-0.94208 0.65536c-0.98304 0.69632-23.7568 16.9984-23.7568 34.11968a24.576 24.576 0 0 0 24.90368 24.61696zM386.74432 317.60384a24.576 24.576 0 0 0 24.576-24.576c0-17.94048-22.81472-33.46432-23.79776-34.16064l-0.8192-0.8192-0.94208 0.65536c-0.98304 0.69632-23.7568 16.9984-23.7568 34.11968a24.576 24.576 0 0 0 24.73984 24.7808zM315.84256 317.60384a24.576 24.576 0 0 0 24.576-24.576c0-17.94048-22.81472-33.46432-23.79776-34.16064l-0.77824-0.8192-0.94208 0.65536c-0.98304 0.69632-23.7568 16.9984-23.7568 34.11968a24.576 24.576 0 0 0 24.69888 24.7808z" p-id="4195" fill="#b1e19b"></path><path d="M799.62112 449.24928v-172.032a20.48 20.48 0 0 0-20.48-20.48H526.99136a20.48 20.48 0 1 0 0 40.96h231.46496V458.752h-4.096c-40.18176 0-40.18176-32.1536-80.36352-32.1536s-40.18176 32.1536-80.32256 32.1536-40.18176-32.1536-80.32256-32.1536-40.18176 32.1536-80.32256 32.1536-40.18176-32.1536-80.32256-32.1536S312.5248 458.752 272.384 458.752a66.80576 66.80576 0 0 1-6.92224-0.36864V276.97152a20.48 20.48 0 0 0-40.96 0v192.83968a20.48 20.48 0 0 0 0 2.33472v263.3728a32.23552 32.23552 0 0 0 32.1536 32.1536H767.5904a32.23552 32.23552 0 0 0 32.1536-32.1536v-283.40224c0-0.98304-0.04096-1.92512-0.12288-2.8672z" p-id="4196" fill="#b1e19b"></path></svg>