<?xml version="1.0" encoding="utf-8"?>
<svg version="1.1" xmlns:xlink="http://www.w3.org/1999/xlink" width="22px" height="20px" preserveAspectRatio="xMinYMid meet" viewBox="4 601  22 18" xmlns="http://www.w3.org/2000/svg">
  <g transform="matrix(-1 0 0 -1 30 1220 )">
    <path d="M 2 615  L 2 604  L 1 604  L 1 615  L 2 615  Z M 8.05355339059327 614.146446609407  L 3.40710678118649 609.5  L 8.05355339059327 604.853553390593  L 7.34644660940673 604.146446609407  L 2.34644660940673 609.146446609407  L 1.99289321881351 609.5  L 2.34644660940673 609.853553390593  L 7.34644660940673 614.853553390593  L 8.05355339059327 614.146446609407  Z M 16 604  L 16 615  L 17 615  L 17 604  L 16 604  Z M 9.94644660940673 604.853553390593  L 14.5928932188135 609.5  L 9.94644660940673 614.146446609407  L 10.6535533905933 614.853553390593  L 15.6535533905933 609.853553390593  L 16.0071067811865 609.5  L 15.6535533905933 609.146446609407  L 10.6535533905933 604.146446609407  L 9.94644660940673 604.853553390593  Z " fill-rule="nonzero" fill="#d43838" stroke="none" />
    <path d="M 1 609.5  L 17 609.5  " stroke-width="1" stroke="#d43838" fill="none" />
  </g>
</svg>