<?xml version="1.0" encoding="utf-8"?>
<svg version="1.1" xmlns:xlink="http://www.w3.org/1999/xlink" width="54px" height="4px" preserveAspectRatio="xMinYMid meet" viewBox="120 609  54 2" xmlns="http://www.w3.org/2000/svg">
  <g transform="matrix(0 -1 1 0 -463 757 )">
    <path d="M 124.5 615.5  L 124.5 604.5  L 123.5 604.5  L 123.5 615.5  L 124.5 615.5  Z M 130.553553390593 614.646446609407  L 125.907106781186 610  L 130.553553390593 605.353553390593  L 129.846446609407 604.646446609407  L 124.846446609407 609.646446609407  L 124.492893218814 610  L 124.846446609407 610.353553390593  L 129.846446609407 615.353553390593  L 130.553553390593 614.646446609407  Z M 170.5 604.5  L 170.5 615.5  L 171.5 615.5  L 171.5 604.5  L 170.5 604.5  Z M 164.446446609407 605.353553390593  L 169.092893218814 610  L 164.446446609407 614.646446609407  L 165.153553390593 615.353553390593  L 170.153553390593 610.353553390593  L 170.507106781187 610  L 170.153553390593 609.646446609407  L 165.153553390593 604.646446609407  L 164.446446609407 605.353553390593  Z " fill-rule="nonzero" fill="#d43838" stroke="none" transform="matrix(6.12303176911189E-17 1 -1 6.12303176911189E-17 757.5 461.5 )" />
    <path d="M 123.5 610  L 171.5 610  " stroke-width="1" stroke="#d43838" fill="none" transform="matrix(6.12303176911189E-17 1 -1 6.12303176911189E-17 757.5 461.5 )" />
  </g>
</svg>