<?xml version="1.0" encoding="utf-8"?>
<svg version="1.1" xmlns:xlink="http://www.w3.org/1999/xlink" width="66px" height="19px" xmlns="http://www.w3.org/2000/svg">
  <g transform="matrix(1 0 0 1 -115 -600 )">
    <path d="M 125 615  L 125 604  L 124 604  L 124 615  L 125 615  Z M 131.053553390593 614.146446609407  L 126.407106781186 609.5  L 131.053553390593 604.853553390593  L 130.346446609407 604.146446609407  L 125.346446609407 609.146446609407  L 124.992893218814 609.5  L 125.346446609407 609.853553390593  L 130.346446609407 614.853553390593  L 131.053553390593 614.146446609407  Z M 171 604  L 171 615  L 172 615  L 172 604  L 171 604  Z M 164.946446609407 604.853553390593  L 169.592893218814 609.5  L 164.946446609407 614.146446609407  L 165.653553390593 614.853553390593  L 170.653553390593 609.853553390593  L 171.007106781187 609.5  L 170.653553390593 609.146446609407  L 165.653553390593 604.146446609407  L 164.946446609407 604.853553390593  Z " fill-rule="nonzero" fill="#d43838" stroke="none" />
    <path d="M 124 609.5  L 172 609.5  " stroke-width="1" stroke="#d43838" fill="none" />
  </g>
</svg>