<?xml version="1.0" encoding="utf-8"?>
<svg version="1.1" xmlns:xlink="http://www.w3.org/1999/xlink" width="54px" height="6px" preserveAspectRatio="xMinYMid meet" viewBox="84 193  54 4" xmlns="http://www.w3.org/2000/svg">
  <g transform="matrix(0 -1 1 0 -84 306 )">
    <path d="M 88.5 200.5  L 88.5 189.5  L 87.5 189.5  L 87.5 200.5  L 88.5 200.5  Z M 94.5535533905933 199.646446609407  L 89.9071067811866 195  L 94.5535533905933 190.353553390593  L 93.8464466094067 189.646446609407  L 88.8464466094067 194.646446609407  L 88.4928932188135 195  L 88.8464466094067 195.353553390593  L 93.8464466094067 200.353553390593  L 94.5535533905933 199.646446609407  Z M 134.5 189.5  L 134.5 200.5  L 135.5 200.5  L 135.5 189.5  L 134.5 189.5  Z M 128.446446609407 190.353553390593  L 133.092893218813 195  L 128.446446609407 199.646446609407  L 129.153553390593 200.353553390593  L 134.153553390593 195.353553390593  L 134.507106781187 195  L 134.153553390593 194.646446609407  L 129.153553390593 189.646446609407  L 128.446446609407 190.353553390593  Z " fill-rule="nonzero" fill="#d43838" stroke="none" transform="matrix(6.12303176911189E-17 1 -1 6.12303176911189E-17 306.5 82.5 )" />
    <path d="M 87.5 195  L 135.5 195  " stroke-width="1" stroke="#d43838" fill="none" transform="matrix(6.12303176911189E-17 1 -1 6.12303176911189E-17 306.5 82.5 )" />
  </g>
</svg>