<svg t="1684477957633" class="icon" viewBox="0 0 1024 1024" version="1.1" xmlns="http://www.w3.org/2000/svg" p-id="5471" width="16" height="16"><path d="M499.904 691.456L368 480l141.6-355.52L928 912.16h-290.432l-137.664-220.704L640 912.16 85.536 912 325.056 416l174.848 275.456z" fill="#1890FF" p-id="5472"></path><path d="M326.816 448l283.456 448H496l-169.184-448zM512 163.616L902.08 896h-198.56L512 163.616z" fill="#1890FF" p-id="5473"></path><path d="M648.704 896h252.608L511.68 162.496l-125.824 315.904 127.584 204.512L648.704 896z m288.832 0H992v32H32v-32h43.52l247.616-512.864 40.704 64.096 143.68-360.768L937.536 896zM111.04 896h497.6L486.4 699.968l-159.424-251.104L111.04 896z" fill="#1890FF" p-id="5474"></path></svg>