<svg t="1650436995477" class="icon" viewBox="0 0 1089 1024" version="1.1" xmlns="http://www.w3.org/2000/svg" p-id="9319" width="400" height="400"><path d="M1042.136627 144.337738H47.204795a47.204795 47.204795 0 0 0 0 90.778452h109.841927V817.006066A203.343732 203.343732 0 0 0 363.113807 1023.980937h363.113808A203.343732 203.343732 0 0 0 932.2947 817.006066V238.747328h109.841927a47.204795 47.204795 0 0 0 0-90.778452zM484.756933 726.227615a47.204795 47.204795 0 0 1-90.778452 0V427.566508a47.204795 47.204795 0 0 1 90.778452 0zM698.994079 726.227615a47.204795 47.204795 0 0 1-90.778452 0V427.566508a47.204795 47.204795 0 0 1 90.778452 0zM363.113807 90.778452h363.113808a47.204795 47.204795 0 0 0 47.204795-43.573657A47.204795 47.204795 0 0 0 726.227615 0H363.113807a47.204795 47.204795 0 0 0-47.204795 47.204795A47.204795 47.204795 0 0 0 363.113807 90.778452z" p-id="9320" fill="#1890FF"></path></svg>