<svg t="1686109343326" class="icon" viewBox="0 0 1024 1024" version="1.1" xmlns="http://www.w3.org/2000/svg" p-id="4627" width="24" height="24"><path d="M846.2 873.8H163.4c-10.2 0-18.6-8.3-18.6-18.6V172.4c0-10.2 8.3-18.6 18.6-18.6h682.8c10.2 0 18.6 8.3 18.6 18.6v682.8c0 10.3-8.3 18.6-18.6 18.6z m-664.3-37.1h645.7V191H181.9v645.7z" p-id="4628" fill="#666666"></path><path d="M200.5 246.7h-74.2c-20.5 0-37.1-16.6-37.1-37.1v-74.2c0-20.5 16.6-37.1 37.1-37.1h74.2c20.5 0 37.1 16.6 37.1 37.1v74.2c0 20.5-16.6 37.1-37.1 37.1zM883.3 246.7h-74.2c-20.5 0-37.1-16.6-37.1-37.1v-74.2c0-20.5 16.6-37.1 37.1-37.1h74.2c20.5 0 37.1 16.6 37.1 37.1v74.2c0 20.5-16.6 37.1-37.1 37.1zM883.3 929.5h-74.2c-20.5 0-37.1-16.6-37.1-37.1v-74.2c0-20.5 16.6-37.1 37.1-37.1h74.2c20.5 0 37.1 16.6 37.1 37.1v74.2c0 20.5-16.6 37.1-37.1 37.1zM200.5 929.5h-74.2c-20.5 0-37.1-16.6-37.1-37.1v-74.2c0-20.5 16.6-37.1 37.1-37.1h74.2c20.5 0 37.1 16.6 37.1 37.1v74.2c0 20.5-16.6 37.1-37.1 37.1zM678.4 707.3H562V539.8c0-12.9-1.4-21.8-4-26.8-2.7-5-7.6-7.5-14.6-7.5-13.1 0-19.6 11.5-19.6 34.6v167.2H407.3V539.8c0-12.9-1.4-21.8-4.2-26.8-2.8-5-7.7-7.5-14.8-7.5-12.9 0-19.3 11.5-19.3 34.6v167.2H252.6V516.2c0-34.9 11.7-64.5 35.2-88.9 23.4-24.4 51.9-36.6 85.3-36.6 34.4 0 65.4 14.5 92.8 43.6 30.5-29 61-43.6 91.5-43.6 38.8 0 69.9 14.1 93.4 42.3 18.5 22 27.7 54.1 27.7 96.2v178.1zM725.9 406.4h54.4c5.4 0 9.5 1.1 12.4 3.3 2.8 2.2 4.3 5.2 4.3 9.1 0 3.4-1.1 6.3-3.4 8.6-2.3 2.4-5.7 3.5-10.3 3.5h-76.6c-5.2 0-9.3-1.4-12.2-4.3-2.9-2.9-4.4-6.3-4.4-10.2 0-2.5 0.9-5.8 2.8-9.9 1.9-4.1 3.9-7.4 6.1-9.7 9.2-9.6 17.6-17.8 25-24.6 7.4-6.8 12.7-11.3 15.9-13.5 5.7-4 10.4-8.1 14.2-12.1s6.7-8.2 8.6-12.5 3-8.5 3-12.5c0-4.4-1.1-8.4-3.2-11.9s-5-6.2-8.6-8.2c-3.6-1.9-7.6-2.9-11.9-2.9-9.1 0-16.2 4-21.5 12-0.7 1-1.9 3.9-3.5 8.5-1.6 4.7-3.5 8.2-5.5 10.7s-5 3.7-9 3.7c-3.5 0-6.4-1.1-8.6-3.4s-3.4-5.4-3.4-9.4c0-4.8 1.1-9.8 3.2-15 2.1-5.2 5.4-9.9 9.6-14.2 4.3-4.2 9.7-7.7 16.2-10.3 6.6-2.6 14.2-3.9 23.1-3.9 10.6 0 19.7 1.7 27.2 5 4.9 2.2 9.1 5.3 12.8 9.2 3.7 3.9 6.5 8.4 8.6 13.5 2 5.1 3.1 10.4 3.1 15.9 0 8.6-2.1 16.4-6.4 23.5-4.3 7-8.6 12.6-13.1 16.6-4.4 4-11.9 10.3-22.3 18.8-10.5 8.5-17.6 15.2-21.5 19.9-1.7 1.8-3.4 4-5.1 6.7z" p-id="4629" fill="#666666"></path></svg>