<svg t="1686118153060" class="icon" viewBox="0 0 1493 1024" version="1.1" xmlns="http://www.w3.org/2000/svg" p-id="26400" width="24" height="24"><path d="M809.088 904.917333h621.141333a42.666667 42.666667 0 1 1 0 85.333334h-1365.333333a42.666667 42.666667 0 0 1 0-85.333334h64.298667l298.368-298.410666v-0.256a21.333333 21.333333 0 0 1 21.632-21.333334L997.546667 36.48a21.333333 21.333333 0 0 1 30.165333 30.165333L505.173333 589.269333a362.88 362.88 0 0 1 303.914667 315.648z m-43.008 0a320.085333 320.085333 0 0 0-299.690667-276.906666l-276.906666 276.906666h576.597333z" p-id="26401" fill="#666666"></path></svg>