<?xml version="1.0" encoding="utf-8"?>
<svg version="1.1" xmlns:xlink="http://www.w3.org/1999/xlink" width="64px" height="64px" xmlns="http://www.w3.org/2000/svg">
  <g transform="matrix(1 0 0 1 -456 -237 )">
    <path d="M 457 241  A 3 3 0 0 1 460 238 L 516 238  A 3 3 0 0 1 519 241 L 519 297  A 3 3 0 0 1 516 300 L 460 300  A 3 3 0 0 1 457 297 L 457 241  Z " fill-rule="nonzero" fill="#fbfdff" stroke="none" />
    <path d="M 456.5 241  A 3.5 3.5 0 0 1 460 237.5 L 516 237.5  A 3.5 3.5 0 0 1 519.5 241 L 519.5 297  A 3.5 3.5 0 0 1 516 300.5 L 460 300.5  A 3.5 3.5 0 0 1 456.5 297 L 456.5 241  Z " stroke-width="1" stroke-dasharray="9,4" stroke="#e7e7e7" fill="none" stroke-dashoffset="0.5" />
  </g>
</svg>