<svg t="1686196443672" class="icon" viewBox="0 0 1024 1024" version="1.1" xmlns="http://www.w3.org/2000/svg" p-id="5313" width="24" height="24"><path d="M514.048 993.28c-8.192 0-15.872-3.072-21.504-9.216l-264.704-264.704c-76.288-76.288-118.784-178.176-118.784-286.208s41.984-209.92 118.784-286.208C304.128 70.656 406.016 28.672 514.048 28.672s209.92 41.984 286.208 118.784c76.288 76.288 118.784 178.176 118.784 286.208s-41.984 209.92-118.784 286.208l-264.704 264.704c-5.632 5.632-13.312 8.704-21.504 8.704z m0-903.168c-91.648 0-178.176 35.84-242.688 100.352-65.024 65.024-100.864 151.552-100.864 243.2s35.84 178.176 100.352 242.688l242.688 242.688 242.688-242.688c65.024-65.024 100.352-151.04 100.352-242.688s-35.84-178.176-100.352-242.688c-64.512-65.024-150.528-100.864-242.176-100.864z" fill="#666666" p-id="5314"></path><path d="M514.048 636.416c-88.576 0-160.768-71.68-160.768-160.256s72.192-160.256 160.256-160.256 160.256 72.192 160.256 160.256-71.168 160.256-159.744 160.256z m0-259.072C459.264 377.344 414.72 421.376 414.72 476.16c0 54.784 44.544 98.816 98.816 98.816 54.784 0 98.816-44.544 98.816-98.816 0.512-54.784-44.032-98.816-98.304-98.816z" fill="#666666" p-id="5315"></path></svg>