<?xml version="1.0" encoding="utf-8"?>
<svg version="1.1" xmlns:xlink="http://www.w3.org/1999/xlink" width="16px" height="16px" xmlns="http://www.w3.org/2000/svg">
  <g transform="matrix(1 0 0 1 -1231 -415 )">
    <path d="M 1239 415  C 1243.48 415  1247 418.52  1247 423  C 1247 427.48  1243.48 431  1239 431  C 1234.52 431  1231 427.48  1231 423  C 1231 418.52  1234.52 415  1239 415  Z " fill-rule="nonzero" fill="#8cc8ff" stroke="none" />
    <path d="M 1239 415.5  C 1243.2 415.5  1246.5 418.8  1246.5 423  C 1246.5 427.2  1243.2 430.5  1239 430.5  C 1234.8 430.5  1231.5 427.2  1231.5 423  C 1231.5 418.8  1234.8 415.5  1239 415.5  Z " stroke-width="1" stroke="#1890ff" fill="none" />
  </g>
</svg>