<?xml version="1.0" encoding="utf-8"?>
<svg version="1.1" xmlns:xlink="http://www.w3.org/1999/xlink" width="220px" height="28px" xmlns="http://www.w3.org/2000/svg">
  <defs>
    <mask fill="white" id="clip19">
      <path d="M 0 26  L 0 2  C 0 0.879999999999995  0.672222222222306 0  1.52777777777778 0  L 142.847222222222 0  L 218.472222222222 0  C 219.327777777778 0  220 0.879999999999995  220 2  L 220 26  C 220 27.12  219.327777777778 28  218.472222222222 28  L 1.52777777777778 28  C 0.672222222222306 28  0 27.12  0 26  Z " fill-rule="evenodd" />
    </mask>
  </defs>
  <g transform="matrix(1 0 0 1 -810 -836 )">
    <path d="M 0 26  L 0 2  C 0 0.879999999999995  0.672222222222306 0  1.52777777777778 0  L 142.847222222222 0  L 218.472222222222 0  C 219.327777777778 0  220 0.879999999999995  220 2  L 220 26  C 220 27.12  219.327777777778 28  218.472222222222 28  L 1.52777777777778 28  C 0.672222222222306 28  0 27.12  0 26  Z " fill-rule="nonzero" fill="#ffffff" stroke="none" transform="matrix(1 0 0 1 810 836 )" />
    <path d="M 0 26  L 0 2  C 0 0.879999999999995  0.672222222222306 0  1.52777777777778 0  L 142.847222222222 0  L 218.472222222222 0  C 219.327777777778 0  220 0.879999999999995  220 2  L 220 26  C 220 27.12  219.327777777778 28  218.472222222222 28  L 1.52777777777778 28  C 0.672222222222306 28  0 27.12  0 26  Z " stroke-width="2" stroke="#e9e9e9" fill="none" transform="matrix(1 0 0 1 810 836 )" mask="url(#clip19)" />
  </g>
</svg>