<?xml version="1.0" encoding="utf-8"?>
<svg version="1.1" xmlns:xlink="http://www.w3.org/1999/xlink" width="100px" height="100px" xmlns="http://www.w3.org/2000/svg">
  <defs>
    <filter x="1194px" y="159px" width="100px" height="100px" filterUnits="userSpaceOnUse" id="filter20">
      <feOffset dx="0" dy="0" in="SourceAlpha" result="shadowOffsetInner" />
      <feGaussianBlur stdDeviation="3" in="shadowOffsetInner" result="shadowGaussian" />
      <feComposite in2="shadowGaussian" operator="atop" in="SourceAlpha" result="shadowComposite" />
      <feColorMatrix type="matrix" values="0 0 0 0 0  0 0 0 0 0  0 0 0 0 0  0 0 0 0.149019607843137 0  " in="shadowComposite" />
    </filter>
    <g id="widget21">
      <path d="M 1200.5 169  A 3.5 3.5 0 0 1 1204 165.5 L 1284 165.5  A 3.5 3.5 0 0 1 1287.5 169 L 1287.5 249  A 3.5 3.5 0 0 1 1284 252.5 L 1204 252.5  A 3.5 3.5 0 0 1 1200.5 249 L 1200.5 169  Z " fill-rule="nonzero" fill="#ffffff" stroke="none" fill-opacity="0.698039215686274" />
      <path d="M 1200.5 169  A 3.5 3.5 0 0 1 1204 165.5 L 1284 165.5  A 3.5 3.5 0 0 1 1287.5 169 L 1287.5 249  A 3.5 3.5 0 0 1 1284 252.5 L 1204 252.5  A 3.5 3.5 0 0 1 1200.5 249 L 1200.5 169  Z " stroke-width="1" stroke="#e7e7e7" fill="none" />
    </g>
  </defs>
  <g transform="matrix(1 0 0 1 -1194 -159 )">
    <use xlink:href="#widget21" filter="url(#filter20)" />
    <use xlink:href="#widget21" />
  </g>
</svg>