<?xml version="1.0" encoding="utf-8"?>
<svg version="1.1" xmlns:xlink="http://www.w3.org/1999/xlink" width="76px" height="28px" xmlns="http://www.w3.org/2000/svg">
  <defs>
    <mask fill="white" id="clip8">
      <path d="M 0 26  L 0 2  C 0 0.880000000000109  1.04499999999999 0  2.375 0  L 46.3125 0  L 73.625 0  C 74.955 0  76 0.880000000000109  76 2  L 76 26  C 76 27.1199999999999  74.955 28  73.625 28  L 2.375 28  C 1.04499999999999 28  0 27.1199999999999  0 26  Z " fill-rule="evenodd" />
    </mask>
  </defs>
  <g transform="matrix(1 0 0 1 -305 -2429 )">
    <path d="M 0 26  L 0 2  C 0 0.880000000000109  1.04499999999999 0  2.375 0  L 46.3125 0  L 73.625 0  C 74.955 0  76 0.880000000000109  76 2  L 76 26  C 76 27.1199999999999  74.955 28  73.625 28  L 2.375 28  C 1.04499999999999 28  0 27.1199999999999  0 26  Z " fill-rule="nonzero" fill="#ffffff" stroke="none" transform="matrix(1 0 0 1 305 2429 )" />
    <path d="M 0 26  L 0 2  C 0 0.880000000000109  1.04499999999999 0  2.375 0  L 46.3125 0  L 73.625 0  C 74.955 0  76 0.880000000000109  76 2  L 76 26  C 76 27.1199999999999  74.955 28  73.625 28  L 2.375 28  C 1.04499999999999 28  0 27.1199999999999  0 26  Z " stroke-width="2" stroke="#e9e9e9" fill="none" transform="matrix(1 0 0 1 305 2429 )" mask="url(#clip8)" />
  </g>
</svg>