<?xml version="1.0" encoding="utf-8"?>
<svg version="1.1" xmlns:xlink="http://www.w3.org/1999/xlink" width="98px" height="28px" xmlns="http://www.w3.org/2000/svg">
  <defs>
    <mask fill="white" id="clip9">
      <path d="M 0 26  L 0 2  C 0 0.880000000000109  1.34749999999999 0  3.0625 0  L 59.71875 0  L 94.9375 0  C 96.6525 0  98 0.880000000000109  98 2  L 98 26  C 98 27.1199999999999  96.6525 28  94.9375 28  L 3.0625 28  C 1.34749999999999 28  0 27.1199999999999  0 26  Z " fill-rule="evenodd" />
    </mask>
  </defs>
  <g transform="matrix(1 0 0 1 -1146 -2429 )">
    <path d="M 0 26  L 0 2  C 0 0.880000000000109  1.34749999999999 0  3.0625 0  L 59.71875 0  L 94.9375 0  C 96.6525 0  98 0.880000000000109  98 2  L 98 26  C 98 27.1199999999999  96.6525 28  94.9375 28  L 3.0625 28  C 1.34749999999999 28  0 27.1199999999999  0 26  Z " fill-rule="nonzero" fill="#ffffff" stroke="none" transform="matrix(1 0 0 1 1146 2429 )" />
    <path d="M 0 26  L 0 2  C 0 0.880000000000109  1.34749999999999 0  3.0625 0  L 59.71875 0  L 94.9375 0  C 96.6525 0  98 0.880000000000109  98 2  L 98 26  C 98 27.1199999999999  96.6525 28  94.9375 28  L 3.0625 28  C 1.34749999999999 28  0 27.1199999999999  0 26  Z " stroke-width="2" stroke="#e9e9e9" fill="none" transform="matrix(1 0 0 1 1146 2429 )" mask="url(#clip9)" />
  </g>
</svg>