<?xml version="1.0" encoding="utf-8"?>
<svg version="1.1" xmlns:xlink="http://www.w3.org/1999/xlink" width="14px" height="14px" xmlns="http://www.w3.org/2000/svg">
  <g transform="matrix(1 0 0 1 -446 -1254 )">
    <path d="M 453 1255.5  C 456.08 1255.5  458.5 1257.92  458.5 1261  C 458.5 1264.08  456.08 1266.5  453 1266.5  C 449.92 1266.5  447.5 1264.08  447.5 1261  C 447.5 1257.92  449.92 1255.5  453 1255.5  Z " fill-rule="nonzero" fill="#fe6666" stroke="none" />
    <path d="M 453 1255  C 456.36 1255  459 1257.64  459 1261  C 459 1264.36  456.36 1267  453 1267  C 449.64 1267  447 1264.36  447 1261  C 447 1257.64  449.64 1255  453 1255  Z " stroke-width="2" stroke-dasharray="6,2" stroke="#1890ff" fill="none" />
  </g>
</svg>