<?xml version="1.0" encoding="utf-8"?>
<svg version="1.1" xmlns:xlink="http://www.w3.org/1999/xlink" width="14px" height="14px" xmlns="http://www.w3.org/2000/svg">
  <g transform="matrix(1 0 0 1 -321 -603 )">
    <path d="M 328 603  C 331.92 603  335 606.08  335 610  C 335 613.92  331.92 617  328 617  C 324.08 617  321 613.92  321 610  C 321 606.08  324.08 603  328 603  Z " fill-rule="nonzero" fill="#ffffff" stroke="none" fill-opacity="0" />
    <path d="M 328 603.5  C 331.64 603.5  334.5 606.36  334.5 610  C 334.5 613.64  331.64 616.5  328 616.5  C 324.36 616.5  321.5 613.64  321.5 610  C 321.5 606.36  324.36 603.5  328 603.5  Z " stroke-width="1" stroke="#108ee9" fill="none" />
  </g>
</svg>