<?xml version="1.0" encoding="utf-8"?>
<svg version="1.1" xmlns:xlink="http://www.w3.org/1999/xlink" width="71px" height="32px" xmlns="http://www.w3.org/2000/svg">
  <defs>
    <mask fill="white" id="clip24">
      <path d="M 71 27.4285714285714  L 71 4.57142857142857  C 71 2.01142857142857  69.0475 0  66.5625 0  L 0 0  L 0 32  L 66.5625 32  C 69.0475 32  71 29.9885714285714  71 27.4285714285714  Z " fill-rule="evenodd" />
    </mask>
  </defs>
  <g transform="matrix(1 0 0 1 -861 -1006 )">
    <path d="M 71 27.4285714285714  L 71 4.57142857142857  C 71 2.01142857142857  69.0475 0  66.5625 0  L 0 0  L 0 32  L 66.5625 32  C 69.0475 32  71 29.9885714285714  71 27.4285714285714  Z " fill-rule="nonzero" fill="#ffffff" stroke="none" transform="matrix(1 0 0 1 861 1006 )" />
    <path d="M 71 27.4285714285714  L 71 4.57142857142857  C 71 2.01142857142857  69.0475 0  66.5625 0  L 0 0  L 0 32  L 66.5625 32  C 69.0475 32  71 29.9885714285714  71 27.4285714285714  Z " stroke-width="2" stroke="#d9d9d9" fill="none" transform="matrix(1 0 0 1 861 1006 )" mask="url(#clip24)" />
  </g>
</svg>