<svg t="1687868086442" class="icon" viewBox="0 0 1024 1024" version="1.1" xmlns="http://www.w3.org/2000/svg" p-id="5554" width="16" height="16"><path d="M874.24 874.24c-199.68 199.68-524.16 199.68-723.84 0s-199.68-524.16 0-723.84 524.16-199.68 723.84 0 199.68 524.16 0 723.84zM195.2 195.2a448.448 448.448 0 0 0 0 633.6 448.448 448.448 0 0 0 633.6 0 448.448 448.448 0 0 0 0-633.6 448.448 448.448 0 0 0-633.6 0z" fill="#999999" p-id="5555"></path><path d="M675.84 404.48l-271.36 271.36c-12.8 12.8-32.64 12.8-45.44 0-12.8-12.8-12.8-32.64 0-45.44l271.36-271.36c12.8-12.8 32.64-12.8 45.44 0 12.8 12.8 12.8 33.28 0 45.44z" fill="#999999" p-id="5556"></path><path d="M675.84 675.84c-12.8 12.8-32.64 12.8-45.44 0L359.04 404.48c-12.8-12.8-12.8-32.64 0-45.44 12.8-12.8 32.64-12.8 45.44 0l271.36 271.36c12.8 12.8 12.8 33.28 0 45.44z" fill="#999999" p-id="5557"></path></svg>