<svg t="1687870529028" class="icon" viewBox="0 0 1024 1024" version="1.1" xmlns="http://www.w3.org/2000/svg" p-id="7584" width="24" height="24"><path d="M224.128 155.498667C380.16 2.688 631.786667-0.490667 791.722667 147.712l8.149333 7.786667a394.176 394.176 0 0 1 0 565.589333L512 1002.944 224.128 721.066667a394.176 394.176 0 0 1 0-565.589334zM512 275.2a168.533333 168.533333 0 1 0 0 337.066667 168.533333 168.533333 0 0 0 0-337.066667z m0 64a104.533333 104.533333 0 1 1 0 209.066667 104.533333 104.533333 0 0 1 0-209.066667z" fill="#999999" p-id="7585"></path></svg>